<?xml version="1.0" encoding="utf-8"?>
<!-- Generator: Adobe Illustrator 27.5.0, SVG Export Plug-In . SVG Version: 6.00 Build 0)  -->
<svg version="1.1" id="Layer_1" xmlns="http://www.w3.org/2000/svg" xmlns:xlink="http://www.w3.org/1999/xlink" x="0px" y="0px"
	 viewBox="0 0 1000 1000" style="enable-background:new 0 0 1000 1000;" xml:space="preserve">
<style type="text/css">
	.st0{fill:#FFFFFF;}
</style>
<g>
	<path class="st0" d="M967.7,477.7h-882l184.9-184.9c4.5-4.5,6.7-8.9,6.7-15.6c0-13.4-8.9-22.3-22.3-22.3c-6.7,0-11.1,2.2-15.6,6.7
		L16.7,484.4c-4.5,4.5-6.7,8.9-6.7,15.6s2.2,11.1,6.7,15.6l222.7,222.7c4.5,4.5,8.9,6.7,15.6,6.7c13.4,0,22.3-8.9,22.3-22.3
		c0-6.7-2.2-11.1-6.7-15.6L85.7,522.3h882c13.4,0,22.3-8.9,22.3-22.3C990,486.6,981.1,477.7,967.7,477.7z"/>
</g>
</svg>
